<?xml version="1.0" encoding="UTF-8"?>
<svg xmlns="http://www.w3.org/2000/svg" version="1.1" width="300" height="300" viewBox="0 0 300 300"><rect x="0" y="0" width="300" height="300" fill="#ffffff"/><g transform="scale(5.263)"><g transform="translate(0,0)"><path fill-rule="evenodd" d="M10 0L10 3L9 3L9 2L8 2L8 3L9 3L9 4L10 4L10 7L9 7L9 6L8 6L8 8L4 8L4 9L5 9L5 11L4 11L4 10L3 10L3 8L0 8L0 9L2 9L2 10L1 10L1 11L2 11L2 13L0 13L0 14L2 14L2 15L3 15L3 16L4 16L4 17L5 17L5 19L4 19L4 18L3 18L3 17L0 17L0 18L3 18L3 20L2 20L2 21L5 21L5 20L6 20L6 21L7 21L7 20L6 20L6 19L9 19L9 20L8 20L8 21L9 21L9 20L11 20L11 23L10 23L10 22L8 22L8 23L7 23L7 22L5 22L5 24L4 24L4 23L1 23L1 27L0 27L0 28L1 28L1 29L0 29L0 30L1 30L1 33L2 33L2 34L1 34L1 35L2 35L2 36L3 36L3 35L2 35L2 34L3 34L3 33L2 33L2 31L3 31L3 30L4 30L4 31L5 31L5 32L4 32L4 33L5 33L5 32L6 32L6 33L8 33L8 32L9 32L9 34L8 34L8 36L6 36L6 35L7 35L7 34L6 34L6 35L5 35L5 34L4 34L4 35L5 35L5 38L6 38L6 39L5 39L5 41L7 41L7 40L8 40L8 41L9 41L9 43L10 43L10 44L9 44L9 45L10 45L10 44L11 44L11 45L13 45L13 47L11 47L11 46L8 46L8 44L6 44L6 43L8 43L8 42L5 42L5 43L4 43L4 37L2 37L2 39L3 39L3 40L2 40L2 41L1 41L1 42L0 42L0 43L1 43L1 44L0 44L0 48L5 48L5 47L7 47L7 48L6 48L6 49L8 49L8 53L9 53L9 54L8 54L8 57L11 57L11 56L12 56L12 57L14 57L14 56L15 56L15 53L14 53L14 52L16 52L16 54L17 54L17 55L16 55L16 57L17 57L17 55L18 55L18 54L17 54L17 53L19 53L19 56L18 56L18 57L19 57L19 56L20 56L20 57L21 57L21 56L22 56L22 57L25 57L25 55L24 55L24 56L23 56L23 54L22 54L22 53L23 53L23 52L24 52L24 54L26 54L26 56L27 56L27 57L28 57L28 56L27 56L27 54L28 54L28 55L29 55L29 54L28 54L28 53L30 53L30 54L31 54L31 53L32 53L32 55L30 55L30 57L32 57L32 55L33 55L33 53L34 53L34 54L35 54L35 53L34 53L34 52L36 52L36 54L38 54L38 56L36 56L36 57L42 57L42 56L43 56L43 54L42 54L42 53L43 53L43 51L44 51L44 54L48 54L48 55L45 55L45 57L46 57L46 56L48 56L48 57L49 57L49 56L50 56L50 57L52 57L52 56L50 56L50 55L49 55L49 54L50 54L50 53L51 53L51 54L52 54L52 55L54 55L54 56L53 56L53 57L57 57L57 54L56 54L56 56L55 56L55 55L54 55L54 54L55 54L55 53L56 53L56 52L54 52L54 50L56 50L56 51L57 51L57 50L56 50L56 48L55 48L55 49L53 49L53 47L55 47L55 46L56 46L56 47L57 47L57 46L56 46L56 44L55 44L55 42L56 42L56 43L57 43L57 42L56 42L56 41L55 41L55 40L57 40L57 38L56 38L56 37L55 37L55 36L54 36L54 35L56 35L56 36L57 36L57 35L56 35L56 34L57 34L57 33L55 33L55 32L57 32L57 30L56 30L56 29L55 29L55 28L54 28L54 27L55 27L55 26L56 26L56 28L57 28L57 26L56 26L56 25L57 25L57 24L56 24L56 23L57 23L57 22L56 22L56 20L54 20L54 19L55 19L55 17L56 17L56 16L53 16L53 17L52 17L52 18L54 18L54 19L52 19L52 20L51 20L51 18L50 18L50 17L51 17L51 16L52 16L52 14L50 14L50 13L51 13L51 12L52 12L52 13L53 13L53 14L54 14L54 15L55 15L55 13L56 13L56 12L55 12L55 11L53 11L53 12L52 12L52 10L50 10L50 9L51 9L51 8L49 8L49 9L48 9L48 7L49 7L49 6L48 6L48 7L47 7L47 5L48 5L48 0L45 0L45 1L44 1L44 0L43 0L43 1L42 1L42 0L38 0L38 1L36 1L36 0L33 0L33 1L35 1L35 2L36 2L36 3L35 3L35 4L34 4L34 5L32 5L32 0L26 0L26 1L28 1L28 3L27 3L27 2L26 2L26 3L27 3L27 4L26 4L26 5L25 5L25 4L24 4L24 5L25 5L25 6L24 6L24 7L23 7L23 6L22 6L22 5L23 5L23 4L21 4L21 5L20 5L20 3L22 3L22 2L23 2L23 3L24 3L24 2L23 2L23 0L22 0L22 1L21 1L21 0L19 0L19 1L17 1L17 2L18 2L18 3L17 3L17 4L16 4L16 5L17 5L17 6L16 6L16 7L15 7L15 5L14 5L14 7L15 7L15 8L14 8L14 9L13 9L13 8L11 8L11 9L10 9L10 10L8 10L8 9L9 9L9 8L10 8L10 7L11 7L11 5L12 5L12 4L15 4L15 2L14 2L14 1L16 1L16 0L14 0L14 1L12 1L12 0ZM24 0L24 1L25 1L25 0ZM19 1L19 3L18 3L18 4L19 4L19 3L20 3L20 1ZM29 1L29 3L28 3L28 4L29 4L29 3L30 3L30 4L31 4L31 1ZM38 1L38 3L36 3L36 4L37 4L37 5L38 5L38 6L37 6L37 7L36 7L36 5L34 5L34 6L33 6L33 7L32 7L32 6L31 6L31 9L30 9L30 10L29 10L29 9L27 9L27 10L28 10L28 11L29 11L29 12L27 12L27 11L26 11L26 12L25 12L25 10L26 10L26 9L25 9L25 7L26 7L26 6L25 6L25 7L24 7L24 9L23 9L23 10L22 10L22 6L21 6L21 8L20 8L20 6L19 6L19 5L18 5L18 6L17 6L17 7L16 7L16 8L15 8L15 9L14 9L14 11L15 11L15 9L16 9L16 11L17 11L17 13L16 13L16 12L14 12L14 14L13 14L13 12L12 12L12 13L11 13L11 14L12 14L12 18L13 18L13 19L12 19L12 20L13 20L13 22L12 22L12 23L13 23L13 24L9 24L9 23L8 23L8 24L9 24L9 25L8 25L8 26L9 26L9 25L11 25L11 26L10 26L10 28L9 28L9 30L10 30L10 29L12 29L12 30L11 30L11 31L10 31L10 32L11 32L11 34L9 34L9 35L10 35L10 36L8 36L8 38L9 38L9 40L11 40L11 39L10 39L10 38L9 38L9 37L11 37L11 38L12 38L12 39L13 39L13 41L11 41L11 42L10 42L10 43L11 43L11 44L13 44L13 45L14 45L14 49L13 49L13 48L11 48L11 49L10 49L10 48L9 48L9 50L11 50L11 51L12 51L12 52L11 52L11 53L10 53L10 52L9 52L9 53L10 53L10 55L9 55L9 56L10 56L10 55L11 55L11 54L12 54L12 55L13 55L13 54L12 54L12 53L13 53L13 51L12 51L12 50L14 50L14 51L15 51L15 50L16 50L16 52L18 52L18 49L15 49L15 47L16 47L16 48L18 48L18 46L19 46L19 45L20 45L20 46L21 46L21 49L20 49L20 47L19 47L19 49L20 49L20 50L21 50L21 53L20 53L20 54L21 54L21 55L20 55L20 56L21 56L21 55L22 55L22 54L21 54L21 53L22 53L22 52L23 52L23 49L24 49L24 47L23 47L23 44L22 44L22 46L21 46L21 45L20 45L20 44L21 44L21 41L22 41L22 43L23 43L23 41L24 41L24 44L25 44L25 45L24 45L24 46L25 46L25 50L24 50L24 51L25 51L25 50L26 50L26 48L27 48L27 47L26 47L26 46L25 46L25 45L27 45L27 46L28 46L28 48L31 48L31 47L29 47L29 46L30 46L30 45L31 45L31 46L32 46L32 50L31 50L31 52L33 52L33 48L34 48L34 46L36 46L36 47L35 47L35 49L34 49L34 50L36 50L36 51L39 51L39 52L38 52L38 53L39 53L39 52L40 52L40 50L37 50L37 49L36 49L36 48L37 48L37 47L38 47L38 46L39 46L39 47L40 47L40 48L38 48L38 49L40 49L40 48L41 48L41 52L42 52L42 51L43 51L43 50L44 50L44 51L46 51L46 52L45 52L45 53L46 53L46 52L47 52L47 50L48 50L48 48L49 48L49 47L50 47L50 48L52 48L52 47L50 47L50 46L49 46L49 45L50 45L50 44L52 44L52 43L50 43L50 42L51 42L51 41L52 41L52 42L53 42L53 41L54 41L54 40L55 40L55 39L54 39L54 40L53 40L53 41L52 41L52 39L51 39L51 38L50 38L50 37L52 37L52 38L54 38L54 36L53 36L53 37L52 37L52 36L51 36L51 35L48 35L48 34L50 34L50 33L52 33L52 35L53 35L53 34L54 34L54 33L52 33L52 32L49 32L49 31L48 31L48 30L47 30L47 29L48 29L48 27L46 27L46 26L50 26L50 25L52 25L52 26L54 26L54 24L55 24L55 25L56 25L56 24L55 24L55 23L56 23L56 22L55 22L55 23L54 23L54 22L52 22L52 21L54 21L54 20L52 20L52 21L51 21L51 20L50 20L50 22L49 22L49 21L47 21L47 19L50 19L50 18L49 18L49 16L50 16L50 14L49 14L49 12L50 12L50 10L48 10L48 9L46 9L46 10L44 10L44 8L43 8L43 9L42 9L42 10L43 10L43 11L44 11L44 12L42 12L42 13L40 13L40 14L39 14L39 15L41 15L41 16L38 16L38 17L36 17L36 16L37 16L37 15L36 15L36 14L35 14L35 13L36 13L36 12L37 12L37 11L38 11L38 10L39 10L39 12L38 12L38 13L39 13L39 12L40 12L40 9L39 9L39 8L42 8L42 6L41 6L41 7L40 7L40 5L38 5L38 4L39 4L39 3L40 3L40 4L42 4L42 5L43 5L43 7L44 7L44 5L43 5L43 4L42 4L42 3L44 3L44 4L46 4L46 5L45 5L45 8L46 8L46 5L47 5L47 3L44 3L44 2L41 2L41 3L40 3L40 1ZM46 1L46 2L47 2L47 1ZM12 2L12 3L14 3L14 2ZM33 2L33 3L34 3L34 2ZM27 5L27 8L30 8L30 5ZM12 6L12 7L13 7L13 6ZM18 6L18 8L16 8L16 9L18 9L18 11L19 11L19 12L18 12L18 13L19 13L19 14L18 14L18 17L17 17L17 16L16 16L16 13L15 13L15 15L14 15L14 17L13 17L13 18L14 18L14 19L16 19L16 22L18 22L18 24L17 24L17 23L16 23L16 25L14 25L14 24L15 24L15 23L14 23L14 22L13 22L13 23L14 23L14 24L13 24L13 25L14 25L14 26L13 26L13 27L16 27L16 28L14 28L14 29L13 29L13 30L12 30L12 32L13 32L13 33L12 33L12 34L11 34L11 35L12 35L12 36L13 36L13 39L14 39L14 40L15 40L15 41L14 41L14 42L15 42L15 45L16 45L16 46L17 46L17 45L16 45L16 44L17 44L17 42L18 42L18 43L19 43L19 44L18 44L18 45L19 45L19 44L20 44L20 42L19 42L19 41L17 41L17 42L15 42L15 41L16 41L16 39L17 39L17 40L18 40L18 39L19 39L19 36L20 36L20 38L22 38L22 41L23 41L23 40L24 40L24 41L25 41L25 42L26 42L26 44L27 44L27 45L29 45L29 43L30 43L30 44L32 44L32 45L34 45L34 43L35 43L35 44L36 44L36 45L37 45L37 46L38 46L38 45L40 45L40 46L42 46L42 47L41 47L41 48L42 48L42 47L43 47L43 48L44 48L44 49L45 49L45 50L47 50L47 48L48 48L48 47L49 47L49 46L48 46L48 47L47 47L47 46L46 46L46 45L47 45L47 42L46 42L46 41L47 41L47 39L48 39L48 40L49 40L49 41L50 41L50 40L49 40L49 39L48 39L48 38L49 38L49 37L47 37L47 38L46 38L46 35L47 35L47 36L48 36L48 35L47 35L47 34L46 34L46 31L47 31L47 32L48 32L48 33L49 33L49 32L48 32L48 31L47 31L47 30L46 30L46 29L45 29L45 30L46 30L46 31L45 31L45 34L46 34L46 35L45 35L45 36L44 36L44 37L45 37L45 38L46 38L46 40L44 40L44 38L43 38L43 37L42 37L42 36L43 36L43 35L42 35L42 34L43 34L43 33L44 33L44 31L41 31L41 32L40 32L40 30L38 30L38 29L36 29L36 30L38 30L38 32L37 32L37 31L35 31L35 30L34 30L34 29L32 29L32 30L34 30L34 31L33 31L33 32L32 32L32 31L31 31L31 28L34 28L34 27L36 27L36 26L35 26L35 25L34 25L34 27L32 27L32 26L33 26L33 25L32 25L32 22L31 22L31 21L30 21L30 22L29 22L29 21L28 21L28 22L29 22L29 23L26 23L26 25L25 25L25 23L24 23L24 25L23 25L23 22L22 22L22 21L23 21L23 20L24 20L24 22L25 22L25 19L24 19L24 18L26 18L26 22L27 22L27 19L28 19L28 20L30 20L30 19L31 19L31 20L32 20L32 21L33 21L33 22L35 22L35 21L38 21L38 22L37 22L37 23L38 23L38 24L36 24L36 23L34 23L34 24L36 24L36 25L37 25L37 26L38 26L38 27L37 27L37 28L38 28L38 27L39 27L39 26L38 26L38 25L40 25L40 27L41 27L41 28L40 28L40 29L41 29L41 30L43 30L43 29L44 29L44 26L43 26L43 28L42 28L42 27L41 27L41 25L43 25L43 24L44 24L44 25L45 25L45 26L46 26L46 24L47 24L47 25L50 25L50 24L52 24L52 25L53 25L53 24L54 24L54 23L49 23L49 24L48 24L48 22L47 22L47 21L46 21L46 19L47 19L47 17L48 17L48 11L47 11L47 10L46 10L46 11L45 11L45 12L44 12L44 13L45 13L45 14L46 14L46 15L45 15L45 16L44 16L44 14L43 14L43 13L42 13L42 14L41 14L41 15L42 15L42 16L41 16L41 18L42 18L42 20L40 20L40 19L36 19L36 18L34 18L34 17L35 17L35 16L36 16L36 15L35 15L35 14L34 14L34 16L33 16L33 15L32 15L32 14L31 14L31 13L30 13L30 16L29 16L29 17L28 17L28 15L29 15L29 14L28 14L28 13L27 13L27 12L26 12L26 13L25 13L25 12L24 12L24 11L22 11L22 10L21 10L21 9L20 9L20 8L19 8L19 6ZM28 6L28 7L29 7L29 6ZM34 6L34 7L33 7L33 8L32 8L32 9L33 9L33 10L32 10L32 11L33 11L33 12L32 12L32 13L34 13L34 12L36 12L36 11L35 11L35 10L34 10L34 9L36 9L36 10L38 10L38 9L36 9L36 8L34 8L34 7L35 7L35 6ZM38 6L38 7L37 7L37 8L38 8L38 7L39 7L39 6ZM33 8L33 9L34 9L34 8ZM54 8L54 10L55 10L55 8ZM6 9L6 10L7 10L7 11L6 11L6 12L4 12L4 13L2 13L2 14L3 14L3 15L4 15L4 16L5 16L5 15L6 15L6 16L7 16L7 17L6 17L6 18L7 18L7 17L8 17L8 16L7 16L7 15L8 15L8 14L7 14L7 13L6 13L6 12L7 12L7 11L8 11L8 10L7 10L7 9ZM11 9L11 10L10 10L10 11L9 11L9 12L8 12L8 13L9 13L9 12L11 12L11 11L12 11L12 9ZM19 9L19 11L20 11L20 12L21 12L21 10L20 10L20 9ZM24 9L24 10L25 10L25 9ZM2 10L2 11L3 11L3 10ZM33 10L33 11L34 11L34 10ZM56 10L56 11L57 11L57 10ZM30 11L30 12L31 12L31 11ZM46 11L46 14L47 14L47 11ZM22 12L22 14L21 14L21 13L20 13L20 14L21 14L21 16L22 16L22 17L20 17L20 15L19 15L19 17L18 17L18 18L17 18L17 17L16 17L16 16L15 16L15 17L16 17L16 18L17 18L17 19L18 19L18 18L19 18L19 19L20 19L20 20L21 20L21 21L20 21L20 22L21 22L21 23L20 23L20 24L21 24L21 25L16 25L16 26L18 26L18 27L19 27L19 26L20 26L20 28L21 28L21 30L20 30L20 31L21 31L21 33L20 33L20 32L18 32L18 33L17 33L17 31L18 31L18 30L19 30L19 28L18 28L18 30L16 30L16 32L15 32L15 31L13 31L13 32L15 32L15 33L17 33L17 35L16 35L16 34L14 34L14 33L13 33L13 34L14 34L14 35L16 35L16 36L18 36L18 33L19 33L19 34L20 34L20 35L21 35L21 37L22 37L22 38L23 38L23 37L22 37L22 36L24 36L24 35L23 35L23 33L24 33L24 34L25 34L25 35L26 35L26 36L27 36L27 35L26 35L26 34L25 34L25 33L27 33L27 34L28 34L28 35L29 35L29 37L28 37L28 38L29 38L29 39L28 39L28 40L27 40L27 39L26 39L26 38L27 38L27 37L26 37L26 38L25 38L25 37L24 37L24 38L25 38L25 39L24 39L24 40L25 40L25 41L26 41L26 40L27 40L27 41L28 41L28 42L30 42L30 40L31 40L31 43L32 43L32 44L33 44L33 43L32 43L32 42L33 42L33 41L32 41L32 40L33 40L33 39L34 39L34 40L35 40L35 41L34 41L34 42L35 42L35 43L36 43L36 44L38 44L38 43L40 43L40 42L39 42L39 41L40 41L40 40L42 40L42 39L43 39L43 38L42 38L42 39L41 39L41 37L40 37L40 36L41 36L41 33L40 33L40 32L39 32L39 33L38 33L38 34L37 34L37 33L36 33L36 32L34 32L34 33L36 33L36 34L34 34L34 35L32 35L32 34L31 34L31 33L32 33L32 32L31 32L31 31L30 31L30 32L29 32L29 31L28 31L28 32L29 32L29 34L28 34L28 33L27 33L27 32L26 32L26 31L25 31L25 33L24 33L24 32L23 32L23 31L24 31L24 30L25 30L25 28L26 28L26 26L25 26L25 25L24 25L24 28L23 28L23 27L22 27L22 26L23 26L23 25L22 25L22 22L21 22L21 21L22 21L22 20L21 20L21 19L22 19L22 18L24 18L24 15L23 15L23 13L24 13L24 14L25 14L25 13L24 13L24 12ZM54 12L54 13L55 13L55 12ZM4 13L4 14L6 14L6 15L7 15L7 14L6 14L6 13ZM9 14L9 16L11 16L11 15L10 15L10 14ZM27 14L27 15L28 15L28 14ZM56 14L56 15L57 15L57 14ZM22 15L22 16L23 16L23 15ZM46 15L46 17L47 17L47 15ZM26 16L26 17L27 17L27 16ZM43 16L43 17L42 17L42 18L44 18L44 20L43 20L43 21L42 21L42 22L40 22L40 20L38 20L38 21L39 21L39 23L40 23L40 24L41 24L41 23L42 23L42 22L43 22L43 23L44 23L44 24L45 24L45 21L44 21L44 20L45 20L45 17L44 17L44 16ZM19 17L19 18L20 18L20 17ZM30 17L30 18L31 18L31 19L32 19L32 20L33 20L33 19L34 19L34 18L33 18L33 19L32 19L32 17ZM38 17L38 18L39 18L39 17ZM28 18L28 19L29 19L29 18ZM56 18L56 19L57 19L57 18ZM0 20L0 21L1 21L1 20ZM14 20L14 21L15 21L15 20ZM17 20L17 21L18 21L18 22L19 22L19 21L18 21L18 20ZM43 21L43 22L44 22L44 21ZM30 22L30 23L29 23L29 24L27 24L27 25L28 25L28 26L29 26L29 24L30 24L30 23L31 23L31 22ZM6 23L6 24L7 24L7 23ZM2 25L2 27L3 27L3 28L2 28L2 29L1 29L1 30L3 30L3 28L4 28L4 25ZM6 25L6 26L7 26L7 25ZM21 25L21 26L22 26L22 25ZM30 25L30 26L31 26L31 25ZM5 27L5 30L8 30L8 27ZM11 27L11 28L12 28L12 27ZM27 27L27 30L30 30L30 27ZM45 27L45 28L46 28L46 27ZM49 27L49 30L52 30L52 27ZM6 28L6 29L7 29L7 28ZM22 28L22 29L23 29L23 30L24 30L24 29L23 29L23 28ZM28 28L28 29L29 29L29 28ZM41 28L41 29L42 29L42 28ZM50 28L50 29L51 29L51 28ZM53 28L53 30L54 30L54 28ZM14 29L14 30L15 30L15 29ZM21 30L21 31L22 31L22 30ZM6 31L6 32L8 32L8 31ZM54 31L54 32L55 32L55 31ZM22 32L22 33L21 33L21 35L22 35L22 33L23 33L23 32ZM30 32L30 33L31 33L31 32ZM42 32L42 33L43 33L43 32ZM30 34L30 35L31 35L31 36L32 36L32 37L31 37L31 38L30 38L30 37L29 37L29 38L30 38L30 39L29 39L29 40L28 40L28 41L29 41L29 40L30 40L30 39L31 39L31 38L32 38L32 39L33 39L33 38L34 38L34 39L35 39L35 40L36 40L36 41L35 41L35 42L36 42L36 41L37 41L37 43L38 43L38 40L40 40L40 38L38 38L38 37L39 37L39 36L40 36L40 34L38 34L38 36L36 36L36 37L37 37L37 38L38 38L38 39L37 39L37 40L36 40L36 38L34 38L34 37L35 37L35 35L34 35L34 36L32 36L32 35L31 35L31 34ZM0 37L0 39L1 39L1 37ZM6 37L6 38L7 38L7 37ZM16 37L16 38L17 38L17 39L18 39L18 37ZM14 38L14 39L15 39L15 38ZM6 39L6 40L7 40L7 39ZM20 39L20 40L21 40L21 39ZM25 39L25 40L26 40L26 39ZM43 40L43 41L42 41L42 42L41 42L41 44L40 44L40 45L41 45L41 44L42 44L42 42L43 42L43 43L44 43L44 44L43 44L43 45L42 45L42 46L44 46L44 48L45 48L45 49L46 49L46 48L47 48L47 47L46 47L46 46L45 46L45 45L44 45L44 44L46 44L46 42L45 42L45 43L44 43L44 42L43 42L43 41L44 41L44 40ZM2 41L2 42L3 42L3 41ZM2 43L2 44L1 44L1 45L2 45L2 46L1 46L1 47L2 47L2 46L3 46L3 47L5 47L5 46L7 46L7 45L4 45L4 46L3 46L3 45L2 45L2 44L3 44L3 43ZM13 43L13 44L14 44L14 43ZM27 43L27 44L28 44L28 43ZM48 43L48 44L50 44L50 43ZM53 44L53 45L52 45L52 46L53 46L53 45L55 45L55 44ZM22 47L22 49L21 49L21 50L22 50L22 49L23 49L23 47ZM45 47L45 48L46 48L46 47ZM11 49L11 50L12 50L12 49ZM27 49L27 52L30 52L30 49ZM42 49L42 50L43 50L43 49ZM49 49L49 52L52 52L52 49ZM28 50L28 51L29 51L29 50ZM50 50L50 51L51 51L51 50ZM19 51L19 52L20 52L20 51ZM25 52L25 53L26 53L26 54L27 54L27 53L26 53L26 52ZM53 52L53 53L52 53L52 54L53 54L53 53L54 53L54 52ZM48 53L48 54L49 54L49 53ZM39 54L39 55L40 55L40 56L41 56L41 55L42 55L42 54ZM34 55L34 56L35 56L35 55ZM0 0L0 7L7 7L7 0ZM1 1L1 6L6 6L6 1ZM2 2L2 5L5 5L5 2ZM50 0L50 7L57 7L57 0ZM51 1L51 6L56 6L56 1ZM52 2L52 5L55 5L55 2ZM0 50L0 57L7 57L7 50ZM1 51L1 56L6 56L6 51ZM2 52L2 55L5 55L5 52Z" fill="#000000"/></g></g></svg>
