<?xml version="1.0" encoding="UTF-8"?>
<svg xmlns="http://www.w3.org/2000/svg" version="1.1" width="300" height="300" viewBox="0 0 300 300"><rect x="0" y="0" width="300" height="300" fill="#ffffff"/><g transform="scale(5.263)"><g transform="translate(0,0)"><path fill-rule="evenodd" d="M9 0L9 2L8 2L8 3L9 3L9 4L12 4L12 5L9 5L9 6L8 6L8 8L4 8L4 9L3 9L3 8L0 8L0 10L3 10L3 11L4 11L4 12L5 12L5 11L7 11L7 12L6 12L6 13L7 13L7 12L8 12L8 13L9 13L9 12L8 12L8 11L13 11L13 9L12 9L12 8L13 8L13 6L14 6L14 8L15 8L15 6L16 6L16 9L14 9L14 11L16 11L16 12L14 12L14 13L15 13L15 15L16 15L16 16L17 16L17 17L15 17L15 16L14 16L14 17L15 17L15 19L14 19L14 18L13 18L13 17L12 17L12 18L13 18L13 20L12 20L12 19L10 19L10 18L9 18L9 17L10 17L10 16L11 16L11 15L12 15L12 16L13 16L13 15L14 15L14 14L12 14L12 12L10 12L10 15L9 15L9 17L8 17L8 18L9 18L9 19L7 19L7 18L4 18L4 17L1 17L1 18L0 18L0 19L1 19L1 20L0 20L0 21L1 21L1 20L2 20L2 19L3 19L3 21L2 21L2 22L3 22L3 24L4 24L4 23L7 23L7 24L6 24L6 25L5 25L5 26L4 26L4 25L3 25L3 26L2 26L2 27L3 27L3 26L4 26L4 28L3 28L3 29L4 29L4 31L3 31L3 33L2 33L2 32L1 32L1 33L2 33L2 34L3 34L3 37L4 37L4 36L5 36L5 35L4 35L4 34L5 34L5 33L4 33L4 31L7 31L7 32L6 32L6 33L7 33L7 34L6 34L6 35L7 35L7 34L8 34L8 36L9 36L9 34L8 34L8 31L10 31L10 32L9 32L9 33L10 33L10 34L11 34L11 35L10 35L10 37L11 37L11 35L13 35L13 38L10 38L10 39L11 39L11 42L9 42L9 41L10 41L10 40L8 40L8 42L6 42L6 41L7 41L7 40L6 40L6 39L7 39L7 38L6 38L6 37L7 37L7 36L6 36L6 37L5 37L5 40L4 40L4 38L3 38L3 40L2 40L2 42L1 42L1 41L0 41L0 45L1 45L1 44L2 44L2 45L3 45L3 46L2 46L2 47L1 47L1 46L0 46L0 48L5 48L5 47L7 47L7 48L6 48L6 49L8 49L8 53L9 53L9 49L10 49L10 48L9 48L9 47L10 47L10 46L11 46L11 45L12 45L12 47L11 47L11 48L12 48L12 49L13 49L13 50L12 50L12 51L10 51L10 54L8 54L8 57L12 57L12 56L11 56L11 55L13 55L13 56L16 56L16 55L17 55L17 56L18 56L18 57L19 57L19 56L20 56L20 57L21 57L21 55L22 55L22 54L21 54L21 55L20 55L20 52L21 52L21 53L23 53L23 55L24 55L24 57L25 57L25 55L26 55L26 54L27 54L27 55L28 55L28 57L29 57L29 56L30 56L30 57L33 57L33 56L35 56L35 57L36 57L36 56L35 56L35 55L36 55L36 54L35 54L35 52L36 52L36 53L37 53L37 54L38 54L38 55L37 55L37 57L38 57L38 56L40 56L40 57L46 57L46 55L47 55L47 54L48 54L48 57L49 57L49 56L50 56L50 57L51 57L51 56L50 56L50 55L49 55L49 54L50 54L50 53L51 53L51 54L53 54L53 56L54 56L54 57L57 57L57 54L56 54L56 56L54 56L54 53L55 53L55 52L56 52L56 53L57 53L57 50L56 50L56 48L52 48L52 47L54 47L54 45L55 45L55 46L56 46L56 47L57 47L57 46L56 46L56 45L55 45L55 44L56 44L56 41L55 41L55 40L57 40L57 38L56 38L56 37L57 37L57 33L54 33L54 32L52 32L52 31L54 31L54 29L55 29L55 27L54 27L54 28L53 28L53 26L54 26L54 25L55 25L55 26L57 26L57 24L56 24L56 23L57 23L57 22L56 22L56 23L55 23L55 24L54 24L54 23L53 23L53 24L54 24L54 25L52 25L52 24L51 24L51 23L52 23L52 22L50 22L50 21L51 21L51 19L50 19L50 15L51 15L51 14L50 14L50 13L51 13L51 12L52 12L52 14L54 14L54 13L53 13L53 12L52 12L52 10L50 10L50 9L51 9L51 8L48 8L48 7L49 7L49 6L48 6L48 7L47 7L47 5L48 5L48 0L45 0L45 1L47 1L47 2L46 2L46 3L47 3L47 5L46 5L46 7L45 7L45 5L44 5L44 0L43 0L43 1L41 1L41 2L40 2L40 0L38 0L38 1L37 1L37 0L34 0L34 1L32 1L32 0L31 0L31 1L30 1L30 0L29 0L29 1L28 1L28 0L27 0L27 1L26 1L26 0L25 0L25 1L24 1L24 0L20 0L20 1L21 1L21 2L22 2L22 1L23 1L23 2L24 2L24 3L23 3L23 4L22 4L22 3L21 3L21 4L20 4L20 2L18 2L18 1L19 1L19 0L18 0L18 1L17 1L17 0L16 0L16 1L15 1L15 0L14 0L14 1L12 1L12 0ZM10 1L10 2L9 2L9 3L11 3L11 1ZM34 1L34 2L33 2L33 3L32 3L32 2L30 2L30 3L28 3L28 2L25 2L25 3L24 3L24 4L25 4L25 5L26 5L26 3L28 3L28 4L32 4L32 5L33 5L33 7L32 7L32 6L31 6L31 7L32 7L32 8L31 8L31 9L30 9L30 10L29 10L29 9L27 9L27 10L26 10L26 13L27 13L27 14L26 14L26 15L25 15L25 14L24 14L24 16L23 16L23 13L25 13L25 12L23 12L23 13L19 13L19 12L18 12L18 11L19 11L19 10L20 10L20 11L21 11L21 12L22 12L22 10L23 10L23 9L24 9L24 8L25 8L25 9L26 9L26 6L25 6L25 7L24 7L24 5L23 5L23 7L22 7L22 4L21 4L21 5L20 5L20 4L17 4L17 3L18 3L18 2L17 2L17 3L16 3L16 2L15 2L15 3L14 3L14 2L12 2L12 3L14 3L14 4L13 4L13 5L15 5L15 3L16 3L16 5L17 5L17 9L16 9L16 10L17 10L17 12L18 12L18 13L16 13L16 14L17 14L17 16L18 16L18 17L17 17L17 18L16 18L16 20L17 20L17 19L18 19L18 18L20 18L20 19L22 19L22 18L23 18L23 19L24 19L24 20L23 20L23 21L22 21L22 20L21 20L21 21L20 21L20 20L18 20L18 21L16 21L16 22L17 22L17 23L16 23L16 24L17 24L17 25L15 25L15 24L14 24L14 23L15 23L15 20L14 20L14 22L13 22L13 23L11 23L11 25L10 25L10 24L9 24L9 25L8 25L8 24L7 24L7 25L6 25L6 26L7 26L7 25L8 25L8 26L9 26L9 25L10 25L10 27L9 27L9 28L10 28L10 29L9 29L9 30L10 30L10 29L11 29L11 34L12 34L12 33L13 33L13 34L16 34L16 35L17 35L17 37L18 37L18 39L17 39L17 38L16 38L16 36L15 36L15 38L13 38L13 41L12 41L12 44L15 44L15 45L16 45L16 46L17 46L17 49L16 49L16 47L15 47L15 46L14 46L14 45L13 45L13 46L14 46L14 47L15 47L15 48L14 48L14 50L15 50L15 49L16 49L16 50L17 50L17 53L16 53L16 54L17 54L17 55L18 55L18 56L19 56L19 54L18 54L18 53L19 53L19 49L20 49L20 48L21 48L21 49L22 49L22 50L20 50L20 51L21 51L21 52L22 52L22 50L23 50L23 49L24 49L24 50L26 50L26 48L28 48L28 47L26 47L26 46L27 46L27 45L26 45L26 44L27 44L27 42L26 42L26 43L25 43L25 42L24 42L24 41L22 41L22 40L20 40L20 39L19 39L19 37L18 37L18 36L20 36L20 35L19 35L19 33L20 33L20 34L21 34L21 36L22 36L22 33L23 33L23 34L24 34L24 35L25 35L25 37L24 37L24 36L23 36L23 38L24 38L24 39L25 39L25 41L26 41L26 39L28 39L28 41L29 41L29 42L28 42L28 43L31 43L31 44L30 44L30 45L28 45L28 46L29 46L29 47L30 47L30 48L31 48L31 50L32 50L32 51L31 51L31 53L30 53L30 54L29 54L29 53L27 53L27 54L29 54L29 55L30 55L30 56L32 56L32 55L35 55L35 54L33 54L33 53L34 53L34 52L35 52L35 51L36 51L36 52L37 52L37 53L38 53L38 54L39 54L39 55L40 55L40 56L42 56L42 54L43 54L43 56L45 56L45 55L46 55L46 54L47 54L47 52L48 52L48 48L49 48L49 47L50 47L50 48L51 48L51 47L52 47L52 46L51 46L51 45L54 45L54 44L55 44L55 43L54 43L54 44L50 44L50 45L49 45L49 44L48 44L48 42L49 42L49 43L50 43L50 41L51 41L51 39L50 39L50 36L49 36L49 35L51 35L51 37L52 37L52 40L53 40L53 37L54 37L54 39L55 39L55 37L56 37L56 35L54 35L54 36L53 36L53 37L52 37L52 35L51 35L51 34L50 34L50 32L51 32L51 33L52 33L52 34L53 34L53 33L52 33L52 32L51 32L51 31L50 31L50 32L49 32L49 31L48 31L48 29L47 29L47 26L46 26L46 25L47 25L47 22L48 22L48 24L49 24L49 23L50 23L50 22L49 22L49 20L50 20L50 19L49 19L49 14L48 14L48 16L47 16L47 17L46 17L46 18L48 18L48 21L47 21L47 19L46 19L46 20L45 20L45 18L44 18L44 17L45 17L45 16L46 16L46 14L47 14L47 13L50 13L50 12L47 12L47 11L48 11L48 10L49 10L49 11L50 11L50 10L49 10L49 9L47 9L47 7L46 7L46 9L44 9L44 8L45 8L45 7L44 7L44 6L43 6L43 5L42 5L42 6L41 6L41 7L40 7L40 5L38 5L38 4L39 4L39 3L40 3L40 4L41 4L41 3L43 3L43 2L41 2L41 3L40 3L40 2L39 2L39 1L38 1L38 3L36 3L36 1ZM34 2L34 3L33 3L33 5L34 5L34 7L33 7L33 8L32 8L32 9L33 9L33 12L34 12L34 11L36 11L36 10L35 10L35 9L34 9L34 8L36 8L36 9L37 9L37 12L35 12L35 13L36 13L36 15L35 15L35 14L34 14L34 13L33 13L33 14L34 14L34 15L33 15L33 16L32 16L32 15L31 15L31 13L32 13L32 10L30 10L30 11L29 11L29 12L28 12L28 10L27 10L27 12L28 12L28 13L29 13L29 16L28 16L28 14L27 14L27 16L25 16L25 17L23 17L23 16L22 16L22 17L21 17L21 16L20 16L20 14L19 14L19 15L18 15L18 16L20 16L20 18L22 18L22 17L23 17L23 18L24 18L24 19L25 19L25 20L24 20L24 21L23 21L23 22L24 22L24 21L26 21L26 22L25 22L25 24L24 24L24 23L22 23L22 24L24 24L24 25L23 25L23 26L22 26L22 27L21 27L21 26L20 26L20 25L21 25L21 22L22 22L22 21L21 21L21 22L20 22L20 21L19 21L19 22L20 22L20 23L18 23L18 24L20 24L20 25L17 25L17 26L18 26L18 27L16 27L16 26L14 26L14 25L13 25L13 24L12 24L12 25L13 25L13 26L14 26L14 27L15 27L15 28L16 28L16 29L14 29L14 28L13 28L13 30L12 30L12 32L16 32L16 33L17 33L17 35L18 35L18 33L19 33L19 32L20 32L20 33L21 33L21 32L20 32L20 30L19 30L19 32L18 32L18 33L17 33L17 31L18 31L18 29L20 29L20 28L22 28L22 29L21 29L21 30L22 30L22 29L23 29L23 27L24 27L24 31L23 31L23 33L24 33L24 34L26 34L26 35L27 35L27 36L26 36L26 37L25 37L25 39L26 39L26 37L27 37L27 38L28 38L28 37L29 37L29 36L30 36L30 38L29 38L29 40L30 40L30 39L31 39L31 40L32 40L32 41L33 41L33 42L34 42L34 43L33 43L33 45L32 45L32 44L31 44L31 46L30 46L30 47L31 47L31 48L32 48L32 49L33 49L33 50L34 50L34 51L33 51L33 52L32 52L32 53L33 53L33 52L34 52L34 51L35 51L35 50L34 50L34 49L33 49L33 48L34 48L34 47L33 47L33 46L34 46L34 44L36 44L36 45L35 45L35 46L36 46L36 47L35 47L35 49L36 49L36 47L37 47L37 46L38 46L38 48L37 48L37 50L38 50L38 51L37 51L37 52L38 52L38 51L39 51L39 50L38 50L38 49L40 49L40 51L42 51L42 52L41 52L41 53L40 53L40 52L39 52L39 53L40 53L40 54L42 54L42 53L43 53L43 52L44 52L44 55L45 55L45 54L46 54L46 51L47 51L47 50L46 50L46 49L47 49L47 48L48 48L48 47L49 47L49 46L47 46L47 47L46 47L46 42L44 42L44 41L43 41L43 42L42 42L42 40L45 40L45 41L46 41L46 39L47 39L47 40L48 40L48 41L49 41L49 40L50 40L50 39L49 39L49 38L48 38L48 39L47 39L47 37L46 37L46 35L45 35L45 36L44 36L44 34L42 34L42 33L40 33L40 32L42 32L42 31L43 31L43 32L44 32L44 33L47 33L47 32L48 32L48 31L47 31L47 30L46 30L46 29L44 29L44 28L43 28L43 26L44 26L44 27L45 27L45 28L46 28L46 26L45 26L45 25L44 25L44 24L43 24L43 23L44 23L44 22L42 22L42 21L43 21L43 20L44 20L44 21L45 21L45 20L44 20L44 19L43 19L43 18L42 18L42 17L40 17L40 19L41 19L41 18L42 18L42 20L41 20L41 21L40 21L40 20L39 20L39 19L35 19L35 20L37 20L37 21L36 21L36 23L35 23L35 21L34 21L34 18L35 18L35 17L36 17L36 18L39 18L39 16L38 16L38 14L37 14L37 12L39 12L39 13L40 13L40 14L41 14L41 16L42 16L42 15L43 15L43 17L44 17L44 16L45 16L45 15L44 15L44 14L42 14L42 13L43 13L43 12L44 12L44 13L45 13L45 14L46 14L46 13L45 13L45 12L46 12L46 11L47 11L47 10L45 10L45 12L44 12L44 10L43 10L43 11L42 11L42 10L41 10L41 9L43 9L43 8L44 8L44 7L43 7L43 6L42 6L42 7L41 7L41 8L40 8L40 7L39 7L39 6L38 6L38 5L37 5L37 6L36 6L36 5L34 5L34 4L36 4L36 3L35 3L35 2ZM18 5L18 7L19 7L19 5ZM27 5L27 8L30 8L30 5ZM9 6L9 7L10 7L10 6ZM11 6L11 8L10 8L10 9L9 9L9 10L10 10L10 9L11 9L11 8L12 8L12 6ZM20 6L20 8L21 8L21 6ZM28 6L28 7L29 7L29 6ZM35 6L35 7L36 7L36 8L38 8L38 6L37 6L37 7L36 7L36 6ZM23 7L23 8L22 8L22 9L20 9L20 10L22 10L22 9L23 9L23 8L24 8L24 7ZM18 8L18 9L17 9L17 10L18 10L18 9L19 9L19 8ZM39 8L39 9L38 9L38 10L39 10L39 12L40 12L40 13L41 13L41 12L42 12L42 11L41 11L41 10L40 10L40 8ZM54 8L54 9L53 9L53 10L54 10L54 11L55 11L55 12L56 12L56 13L55 13L55 14L56 14L56 15L54 15L54 16L53 16L53 15L52 15L52 16L51 16L51 18L52 18L52 19L53 19L53 20L52 20L52 21L53 21L53 22L54 22L54 21L55 21L55 20L54 20L54 19L55 19L55 18L56 18L56 21L57 21L57 18L56 18L56 17L57 17L57 14L56 14L56 13L57 13L57 10L56 10L56 9L55 9L55 8ZM4 9L4 10L5 10L5 9ZM6 9L6 10L7 10L7 9ZM54 9L54 10L55 10L55 11L56 11L56 10L55 10L55 9ZM24 10L24 11L25 11L25 10ZM1 11L1 12L0 12L0 14L1 14L1 12L2 12L2 13L3 13L3 12L2 12L2 11ZM40 11L40 12L41 12L41 11ZM30 12L30 13L31 13L31 12ZM4 13L4 14L5 14L5 15L3 15L3 16L5 16L5 17L7 17L7 16L8 16L8 14L5 14L5 13ZM21 14L21 15L22 15L22 14ZM0 15L0 16L2 16L2 15ZM6 15L6 16L7 16L7 15ZM30 15L30 16L29 16L29 17L28 17L28 16L27 16L27 18L28 18L28 20L27 20L27 19L26 19L26 20L27 20L27 22L28 22L28 23L30 23L30 22L32 22L32 24L30 24L30 25L28 25L28 24L27 24L27 23L26 23L26 24L27 24L27 25L28 25L28 26L30 26L30 25L31 25L31 27L32 27L32 28L31 28L31 30L32 30L32 31L34 31L34 32L31 32L31 34L30 34L30 32L29 32L29 33L28 33L28 32L26 32L26 30L25 30L25 33L28 33L28 34L27 34L27 35L28 35L28 36L27 36L27 37L28 37L28 36L29 36L29 35L34 35L34 38L33 38L33 37L31 37L31 39L32 39L32 40L34 40L34 38L35 38L35 39L36 39L36 40L35 40L35 41L34 41L34 42L36 42L36 44L37 44L37 43L38 43L38 42L39 42L39 43L40 43L40 44L38 44L38 46L39 46L39 48L41 48L41 47L42 47L42 49L41 49L41 50L42 50L42 51L44 51L44 52L45 52L45 49L44 49L44 48L43 48L43 47L44 47L44 46L45 46L45 44L43 44L43 45L42 45L42 46L40 46L40 44L42 44L42 42L40 42L40 40L39 40L39 41L38 41L38 42L37 42L37 41L36 41L36 40L38 40L38 39L40 39L40 38L41 38L41 39L42 39L42 38L43 38L43 39L44 39L44 38L43 38L43 37L44 37L44 36L43 36L43 37L42 37L42 36L39 36L39 35L40 35L40 34L39 34L39 35L38 35L38 37L40 37L40 38L36 38L36 37L37 37L37 34L38 34L38 33L39 33L39 32L40 32L40 31L42 31L42 30L43 30L43 31L44 31L44 32L45 32L45 31L46 31L46 30L45 30L45 31L44 31L44 30L43 30L43 29L42 29L42 28L41 28L41 27L42 27L42 26L43 26L43 25L42 25L42 26L41 26L41 25L40 25L40 24L42 24L42 23L40 23L40 22L39 22L39 20L38 20L38 21L37 21L37 22L39 22L39 23L40 23L40 24L39 24L39 25L38 25L38 24L37 24L37 23L36 23L36 24L35 24L35 23L34 23L34 24L33 24L33 21L32 21L32 20L33 20L33 17L32 17L32 16L31 16L31 15ZM34 16L34 17L35 17L35 16ZM36 16L36 17L38 17L38 16ZM52 16L52 17L53 17L53 18L54 18L54 17L56 17L56 16L54 16L54 17L53 17L53 16ZM25 17L25 18L26 18L26 17ZM29 17L29 18L30 18L30 20L28 20L28 21L29 21L29 22L30 22L30 21L31 21L31 20L32 20L32 18L30 18L30 17ZM1 18L1 19L2 19L2 18ZM4 19L4 21L3 21L3 22L4 22L4 21L6 21L6 22L7 22L7 23L8 23L8 21L9 21L9 22L10 22L10 21L9 21L9 20L7 20L7 19ZM6 20L6 21L7 21L7 20ZM53 20L53 21L54 21L54 20ZM11 21L11 22L12 22L12 21ZM46 21L46 22L45 22L45 24L46 24L46 22L47 22L47 21ZM0 22L0 24L1 24L1 22ZM32 24L32 26L34 26L34 28L32 28L32 29L33 29L33 30L34 30L34 31L35 31L35 32L36 32L36 33L37 33L37 32L38 32L38 31L40 31L40 30L38 30L38 29L39 29L39 28L40 28L40 29L41 29L41 30L42 30L42 29L41 29L41 28L40 28L40 26L38 26L38 25L36 25L36 26L38 26L38 28L37 28L37 27L36 27L36 28L35 28L35 26L34 26L34 25L33 25L33 24ZM55 24L55 25L56 25L56 24ZM24 25L24 26L25 26L25 29L26 29L26 25ZM48 25L48 26L50 26L50 25ZM0 26L0 29L2 29L2 28L1 28L1 26ZM11 26L11 27L12 27L12 26ZM5 27L5 30L8 30L8 27ZM18 27L18 28L17 28L17 29L16 29L16 31L17 31L17 29L18 29L18 28L20 28L20 27ZM27 27L27 30L30 30L30 27ZM49 27L49 30L52 30L52 27ZM56 27L56 29L57 29L57 27ZM6 28L6 29L7 29L7 28ZM11 28L11 29L12 29L12 28ZM28 28L28 29L29 29L29 28ZM50 28L50 29L51 29L51 28ZM34 29L34 30L35 30L35 31L36 31L36 32L37 32L37 31L38 31L38 30L37 30L37 31L36 31L36 29ZM0 30L0 31L1 31L1 30ZM13 30L13 31L15 31L15 30ZM55 30L55 31L56 31L56 32L57 32L57 30ZM3 33L3 34L4 34L4 33ZM34 33L34 34L35 34L35 35L36 35L36 34L35 34L35 33ZM41 34L41 35L42 35L42 34ZM47 34L47 36L48 36L48 37L49 37L49 36L48 36L48 35L49 35L49 34ZM1 35L1 36L0 36L0 37L2 37L2 35ZM54 36L54 37L55 37L55 36ZM8 37L8 39L9 39L9 37ZM20 37L20 38L21 38L21 39L22 39L22 38L21 38L21 37ZM41 37L41 38L42 38L42 37ZM14 39L14 41L15 41L15 42L13 42L13 43L16 43L16 45L17 45L17 46L18 46L18 44L19 44L19 45L20 45L20 46L21 46L21 47L22 47L22 45L23 45L23 47L24 47L24 49L25 49L25 46L26 46L26 45L25 45L25 43L24 43L24 42L23 42L23 44L22 44L22 45L20 45L20 44L21 44L21 43L22 43L22 41L19 41L19 40L18 40L18 41L19 41L19 43L18 43L18 42L16 42L16 41L17 41L17 39L16 39L16 41L15 41L15 39ZM48 39L48 40L49 40L49 39ZM3 40L3 42L2 42L2 44L5 44L5 43L4 43L4 42L5 42L5 41L6 41L6 40L5 40L5 41L4 41L4 40ZM30 41L30 42L31 42L31 43L32 43L32 42L31 42L31 41ZM53 41L53 42L52 42L52 43L53 43L53 42L54 42L54 41ZM8 42L8 43L9 43L9 42ZM43 42L43 43L44 43L44 42ZM6 43L6 44L7 44L7 43ZM8 44L8 46L7 46L7 45L6 45L6 46L7 46L7 47L9 47L9 44ZM47 44L47 45L48 45L48 44ZM24 45L24 46L25 46L25 45ZM43 45L43 46L42 46L42 47L43 47L43 46L44 46L44 45ZM3 46L3 47L5 47L5 46ZM31 46L31 47L32 47L32 48L33 48L33 47L32 47L32 46ZM50 46L50 47L51 47L51 46ZM12 47L12 48L13 48L13 47ZM18 47L18 49L17 49L17 50L18 50L18 49L19 49L19 48L20 48L20 47ZM45 47L45 48L46 48L46 47ZM22 48L22 49L23 49L23 48ZM27 49L27 52L30 52L30 49ZM43 49L43 50L44 50L44 49ZM49 49L49 52L52 52L52 49ZM53 49L53 50L54 50L54 49ZM28 50L28 51L29 51L29 50ZM50 50L50 51L51 51L51 50ZM55 50L55 51L54 51L54 52L53 52L53 53L54 53L54 52L55 52L55 51L56 51L56 50ZM12 51L12 52L16 52L16 51ZM23 51L23 53L24 53L24 54L26 54L26 51L25 51L25 53L24 53L24 51ZM13 53L13 55L14 55L14 53ZM48 53L48 54L49 54L49 53ZM10 54L10 55L9 55L9 56L10 56L10 55L11 55L11 54ZM31 54L31 55L32 55L32 54ZM22 56L22 57L23 57L23 56ZM26 56L26 57L27 57L27 56ZM0 0L0 7L7 7L7 0ZM1 1L1 6L6 6L6 1ZM2 2L2 5L5 5L5 2ZM50 0L50 7L57 7L57 0ZM51 1L51 6L56 6L56 1ZM52 2L52 5L55 5L55 2ZM0 50L0 57L7 57L7 50ZM1 51L1 56L6 56L6 51ZM2 52L2 55L5 55L5 52Z" fill="#000000"/></g></g></svg>
