<?xml version="1.0" encoding="UTF-8"?>
<svg xmlns="http://www.w3.org/2000/svg" version="1.1" width="300" height="300" viewBox="0 0 300 300"><rect x="0" y="0" width="300" height="300" fill="#ffffff"/><g transform="scale(8.108)"><g transform="translate(0,0)"><path fill-rule="evenodd" d="M9 0L9 1L10 1L10 2L8 2L8 3L9 3L9 4L10 4L10 5L9 5L9 6L8 6L8 8L4 8L4 9L3 9L3 8L0 8L0 11L2 11L2 12L0 12L0 14L2 14L2 15L1 15L1 16L0 16L0 18L1 18L1 19L0 19L0 21L1 21L1 22L2 22L2 23L3 23L3 24L0 24L0 25L3 25L3 26L4 26L4 29L8 29L8 33L9 33L9 34L8 34L8 37L9 37L9 36L12 36L12 37L13 37L13 36L12 36L12 35L9 35L9 34L10 34L10 33L9 33L9 31L10 31L10 30L11 30L11 31L12 31L12 32L11 32L11 34L12 34L12 32L14 32L14 34L13 34L13 35L14 35L14 34L16 34L16 35L19 35L19 37L21 37L21 35L22 35L22 37L25 37L25 35L26 35L26 37L27 37L27 36L28 36L28 37L29 37L29 36L30 36L30 35L31 35L31 36L32 36L32 37L34 37L34 36L35 36L35 37L37 37L37 34L36 34L36 36L35 36L35 35L33 35L33 34L34 34L34 33L35 33L35 32L37 32L37 30L36 30L36 29L37 29L37 28L35 28L35 27L37 27L37 23L36 23L36 22L35 22L35 21L36 21L36 20L34 20L34 19L35 19L35 18L36 18L36 19L37 19L37 18L36 18L36 17L35 17L35 16L34 16L34 15L35 15L35 13L36 13L36 12L35 12L35 11L34 11L34 10L36 10L36 11L37 11L37 10L36 10L36 9L35 9L35 8L34 8L34 9L33 9L33 10L32 10L32 9L31 9L31 8L29 8L29 10L30 10L30 9L31 9L31 11L30 11L30 12L31 12L31 11L32 11L32 13L30 13L30 14L29 14L29 15L30 15L30 14L31 14L31 16L30 16L30 17L29 17L29 16L27 16L27 15L25 15L25 16L26 16L26 17L27 17L27 18L26 18L26 20L27 20L27 22L28 22L28 23L29 23L29 22L30 22L30 24L31 24L31 25L29 25L29 24L28 24L28 25L27 25L27 23L25 23L25 19L23 19L23 18L24 18L24 15L21 15L21 16L18 16L18 15L20 15L20 14L21 14L21 11L22 11L22 12L23 12L23 10L24 10L24 11L27 11L27 13L26 13L26 14L27 14L27 13L28 13L28 12L29 12L29 11L27 11L27 10L28 10L28 7L29 7L29 6L28 6L28 5L29 5L29 4L28 4L28 5L27 5L27 6L26 6L26 5L25 5L25 4L27 4L27 3L26 3L26 2L25 2L25 1L27 1L27 2L29 2L29 0L28 0L28 1L27 1L27 0L25 0L25 1L24 1L24 0L23 0L23 2L22 2L22 3L21 3L21 0L18 0L18 1L20 1L20 2L18 2L18 3L17 3L17 4L16 4L16 5L15 5L15 6L14 6L14 5L13 5L13 6L12 6L12 8L11 8L11 6L10 6L10 5L11 5L11 4L12 4L12 3L13 3L13 4L15 4L15 3L14 3L14 2L13 2L13 1L15 1L15 2L17 2L17 0L16 0L16 1L15 1L15 0L12 0L12 1L10 1L10 0ZM11 2L11 3L12 3L12 2ZM18 3L18 4L17 4L17 5L16 5L16 6L15 6L15 7L14 7L14 6L13 6L13 7L14 7L14 8L12 8L12 10L11 10L11 11L10 11L10 10L9 10L9 11L8 11L8 12L9 12L9 14L7 14L7 13L6 13L6 14L7 14L7 15L5 15L5 16L4 16L4 14L5 14L5 12L7 12L7 11L6 11L6 10L8 10L8 9L4 9L4 10L2 10L2 9L1 9L1 10L2 10L2 11L4 11L4 13L3 13L3 16L4 16L4 17L3 17L3 18L2 18L2 19L1 19L1 21L2 21L2 20L3 20L3 18L9 18L9 19L8 19L8 21L6 21L6 20L7 20L7 19L4 19L4 21L5 21L5 22L4 22L4 24L3 24L3 25L5 25L5 26L7 26L7 25L8 25L8 24L9 24L9 22L10 22L10 25L9 25L9 26L8 26L8 27L6 27L6 28L8 28L8 29L9 29L9 30L10 30L10 29L12 29L12 28L13 28L13 29L14 29L14 30L13 30L13 31L14 31L14 30L15 30L15 29L16 29L16 31L15 31L15 33L16 33L16 34L17 34L17 33L16 33L16 32L17 32L17 31L18 31L18 32L21 32L21 33L20 33L20 34L19 34L19 33L18 33L18 34L19 34L19 35L21 35L21 34L23 34L23 35L25 35L25 34L27 34L27 35L28 35L28 36L29 36L29 35L30 35L30 34L31 34L31 35L32 35L32 34L33 34L33 33L34 33L34 32L35 32L35 29L34 29L34 30L33 30L33 31L34 31L34 32L33 32L33 33L32 33L32 34L31 34L31 33L30 33L30 34L29 34L29 35L28 35L28 31L27 31L27 30L28 30L28 28L29 28L29 27L30 27L30 26L29 26L29 25L28 25L28 26L27 26L27 25L26 25L26 24L25 24L25 23L24 23L24 21L22 21L22 20L21 20L21 21L19 21L19 22L20 22L20 23L18 23L18 20L17 20L17 21L16 21L16 22L15 22L15 19L21 19L21 18L23 18L23 17L22 17L22 16L21 16L21 17L20 17L20 18L19 18L19 17L18 17L18 16L17 16L17 12L16 12L16 13L15 13L15 11L17 11L17 9L18 9L18 10L19 10L19 11L21 11L21 10L23 10L23 9L22 9L22 8L21 8L21 7L22 7L22 6L21 6L21 3L20 3L20 5L18 5L18 4L19 4L19 3ZM22 3L22 4L23 4L23 5L24 5L24 4L25 4L25 3ZM9 6L9 7L10 7L10 6ZM16 6L16 7L15 7L15 8L14 8L14 9L15 9L15 10L16 10L16 7L17 7L17 8L18 8L18 9L19 9L19 10L20 10L20 7L21 7L21 6L20 6L20 7L19 7L19 6L18 6L18 7L17 7L17 6ZM23 6L23 7L24 7L24 6ZM25 6L25 8L27 8L27 7L28 7L28 6L27 6L27 7L26 7L26 6ZM18 7L18 8L19 8L19 7ZM9 8L9 9L10 9L10 8ZM24 9L24 10L25 10L25 9ZM26 9L26 10L27 10L27 9ZM4 10L4 11L5 11L5 10ZM13 10L13 11L14 11L14 10ZM11 11L11 12L12 12L12 13L10 13L10 14L11 14L11 15L12 15L12 16L10 16L10 15L9 15L9 18L10 18L10 19L11 19L11 20L10 20L10 21L11 21L11 23L12 23L12 24L11 24L11 25L10 25L10 26L9 26L9 27L8 27L8 28L9 28L9 29L10 29L10 27L11 27L11 28L12 28L12 27L11 27L11 26L12 26L12 24L14 24L14 26L13 26L13 27L14 27L14 26L16 26L16 25L17 25L17 24L16 24L16 25L15 25L15 22L14 22L14 21L13 21L13 20L12 20L12 19L11 19L11 18L12 18L12 16L14 16L14 18L13 18L13 19L14 19L14 18L16 18L16 17L17 17L17 16L15 16L15 14L14 14L14 13L13 13L13 12L12 12L12 11ZM33 11L33 13L32 13L32 15L33 15L33 14L34 14L34 13L35 13L35 12L34 12L34 11ZM24 12L24 14L25 14L25 12ZM19 13L19 14L20 14L20 13ZM22 13L22 14L23 14L23 13ZM13 14L13 15L14 15L14 14ZM36 14L36 15L37 15L37 14ZM5 16L5 17L7 17L7 16ZM31 16L31 17L30 17L30 18L29 18L29 17L28 17L28 18L27 18L27 19L29 19L29 20L30 20L30 21L31 21L31 20L32 20L32 19L31 19L31 17L32 17L32 18L33 18L33 19L34 19L34 18L33 18L33 17L32 17L32 16ZM10 17L10 18L11 18L11 17ZM30 19L30 20L31 20L31 19ZM11 20L11 21L12 21L12 20ZM33 20L33 21L32 21L32 22L31 22L31 23L32 23L32 22L34 22L34 20ZM8 21L8 22L9 22L9 21ZM28 21L28 22L29 22L29 21ZM6 22L6 23L5 23L5 24L6 24L6 25L7 25L7 24L6 24L6 23L7 23L7 22ZM13 22L13 23L14 23L14 22ZM16 22L16 23L17 23L17 22ZM21 23L21 24L18 24L18 25L19 25L19 26L20 26L20 25L21 25L21 24L22 24L22 27L17 27L17 28L18 28L18 31L20 31L20 30L21 30L21 29L22 29L22 30L23 30L23 31L21 31L21 32L22 32L22 33L23 33L23 34L24 34L24 33L25 33L25 32L26 32L26 33L27 33L27 31L25 31L25 32L23 32L23 31L24 31L24 30L25 30L25 29L26 29L26 30L27 30L27 26L25 26L25 27L23 27L23 26L24 26L24 23ZM34 23L34 24L35 24L35 25L36 25L36 24L35 24L35 23ZM32 25L32 26L33 26L33 27L34 27L34 26L33 26L33 25ZM0 26L0 27L1 27L1 28L0 28L0 29L1 29L1 28L2 28L2 29L3 29L3 28L2 28L2 27L1 27L1 26ZM22 27L22 29L23 29L23 27ZM25 27L25 28L24 28L24 29L25 29L25 28L26 28L26 27ZM31 27L31 28L32 28L32 27ZM20 28L20 29L21 29L21 28ZM29 29L29 32L32 32L32 29ZM30 30L30 31L31 31L31 30ZM16 36L16 37L18 37L18 36ZM0 0L0 7L7 7L7 0ZM1 1L1 6L6 6L6 1ZM2 2L2 5L5 5L5 2ZM30 0L30 7L37 7L37 0ZM31 1L31 6L36 6L36 1ZM32 2L32 5L35 5L35 2ZM0 30L0 37L7 37L7 30ZM1 31L1 36L6 36L6 31ZM2 32L2 35L5 35L5 32Z" fill="#000000"/></g></g></svg>
