<?xml version="1.0" encoding="UTF-8"?>
<svg xmlns="http://www.w3.org/2000/svg" version="1.1" width="300" height="300" viewBox="0 0 300 300"><rect x="0" y="0" width="300" height="300" fill="#ffffff"/><g transform="scale(8.108)"><g transform="translate(0,0)"><path fill-rule="evenodd" d="M9 0L9 1L8 1L8 3L9 3L9 4L8 4L8 8L6 8L6 9L4 9L4 8L3 8L3 9L2 9L2 8L0 8L0 10L1 10L1 12L0 12L0 14L1 14L1 15L0 15L0 16L1 16L1 17L0 17L0 19L3 19L3 18L2 18L2 15L3 15L3 16L5 16L5 18L4 18L4 20L2 20L2 21L5 21L5 22L2 22L2 24L1 24L1 23L0 23L0 25L1 25L1 26L0 26L0 27L1 27L1 28L0 28L0 29L4 29L4 28L2 28L2 27L1 27L1 26L3 26L3 27L4 27L4 26L3 26L3 25L2 25L2 24L3 24L3 23L4 23L4 25L8 25L8 27L7 27L7 26L6 26L6 27L5 27L5 28L6 28L6 29L8 29L8 31L9 31L9 29L11 29L11 28L12 28L12 30L11 30L11 31L10 31L10 32L9 32L9 33L8 33L8 34L10 34L10 35L8 35L8 37L11 37L11 34L12 34L12 33L11 33L11 34L10 34L10 32L11 32L11 31L12 31L12 32L13 32L13 30L14 30L14 32L15 32L15 33L14 33L14 34L16 34L16 35L14 35L14 36L15 36L15 37L16 37L16 36L17 36L17 37L26 37L26 36L28 36L28 37L29 37L29 36L28 36L28 35L29 35L29 34L30 34L30 35L32 35L32 36L31 36L31 37L32 37L32 36L34 36L34 37L37 37L37 34L36 34L36 35L35 35L35 34L34 34L34 31L33 31L33 30L34 30L34 29L33 29L33 28L34 28L34 27L31 27L31 25L33 25L33 26L35 26L35 27L37 27L37 26L36 26L36 23L37 23L37 22L36 22L36 20L35 20L35 18L36 18L36 19L37 19L37 18L36 18L36 16L35 16L35 17L34 17L34 18L33 18L33 16L34 16L34 15L37 15L37 14L36 14L36 13L35 13L35 12L37 12L37 11L36 11L36 10L37 10L37 9L36 9L36 8L34 8L34 10L33 10L33 8L30 8L30 10L29 10L29 9L27 9L27 10L26 10L26 11L29 11L29 12L25 12L25 11L24 11L24 12L23 12L23 15L21 15L21 14L20 14L20 13L19 13L19 14L18 14L18 11L20 11L20 12L21 12L21 13L22 13L22 11L21 11L21 10L20 10L20 8L22 8L22 10L24 10L24 9L25 9L25 8L24 8L24 9L23 9L23 8L22 8L22 7L23 7L23 6L24 6L24 7L25 7L25 6L26 6L26 8L29 8L29 6L28 6L28 7L27 7L27 6L26 6L26 5L28 5L28 4L27 4L27 2L28 2L28 1L29 1L29 0L28 0L28 1L27 1L27 0L24 0L24 1L23 1L23 0L20 0L20 1L19 1L19 0L16 0L16 1L14 1L14 0L12 0L12 1L11 1L11 2L9 2L9 1L10 1L10 0ZM16 1L16 2L14 2L14 3L16 3L16 4L15 4L15 8L14 8L14 6L13 6L13 3L12 3L12 4L9 4L9 5L10 5L10 6L9 6L9 7L10 7L10 8L8 8L8 9L6 9L6 10L7 10L7 11L6 11L6 12L7 12L7 11L10 11L10 8L11 8L11 9L12 9L12 10L11 10L11 13L10 13L10 14L8 14L8 15L5 15L5 13L4 13L4 14L3 14L3 12L4 12L4 11L2 11L2 12L1 12L1 14L3 14L3 15L5 15L5 16L8 16L8 17L6 17L6 18L7 18L7 19L6 19L6 20L5 20L5 21L6 21L6 22L7 22L7 21L8 21L8 22L9 22L9 23L11 23L11 21L10 21L10 20L11 20L11 19L12 19L12 20L13 20L13 21L14 21L14 22L15 22L15 21L17 21L17 20L18 20L18 19L17 19L17 20L15 20L15 19L16 19L16 18L19 18L19 19L20 19L20 20L19 20L19 23L20 23L20 21L21 21L21 23L22 23L22 22L23 22L23 24L24 24L24 23L25 23L25 22L26 22L26 24L25 24L25 25L24 25L24 26L25 26L25 25L26 25L26 27L23 27L23 29L24 29L24 28L26 28L26 29L25 29L25 30L22 30L22 27L21 27L21 29L20 29L20 28L19 28L19 27L20 27L20 26L22 26L22 24L20 24L20 25L18 25L18 23L14 23L14 24L12 24L12 28L14 28L14 29L15 29L15 27L18 27L18 28L16 28L16 30L15 30L15 31L16 31L16 30L17 30L17 31L19 31L19 30L20 30L20 36L22 36L22 35L23 35L23 36L24 36L24 35L25 35L25 34L26 34L26 33L27 33L27 34L29 34L29 33L28 33L28 32L26 32L26 31L28 31L28 30L27 30L27 28L30 28L30 27L29 27L29 26L30 26L30 25L29 25L29 24L28 24L28 25L26 25L26 24L27 24L27 23L28 23L28 22L29 22L29 23L30 23L30 22L31 22L31 24L33 24L33 23L36 23L36 22L33 22L33 20L32 20L32 19L33 19L33 18L32 18L32 19L31 19L31 21L30 21L30 22L29 22L29 20L28 20L28 22L27 22L27 20L25 20L25 18L26 18L26 17L25 17L25 15L26 15L26 14L25 14L25 13L24 13L24 14L25 14L25 15L23 15L23 16L21 16L21 15L20 15L20 14L19 14L19 15L18 15L18 14L17 14L17 13L16 13L16 12L17 12L17 11L16 11L16 10L17 10L17 9L18 9L18 10L19 10L19 9L18 9L18 8L20 8L20 6L21 6L21 7L22 7L22 6L21 6L21 5L20 5L20 6L19 6L19 4L20 4L20 3L22 3L22 5L26 5L26 4L24 4L24 3L25 3L25 2L27 2L27 1L25 1L25 2L24 2L24 3L23 3L23 2L22 2L22 1L20 1L20 2L18 2L18 5L16 5L16 4L17 4L17 3L16 3L16 2L17 2L17 1ZM11 5L11 6L10 6L10 7L11 7L11 6L12 6L12 8L13 8L13 6L12 6L12 5ZM16 6L16 7L17 7L17 8L18 8L18 7L19 7L19 6L18 6L18 7L17 7L17 6ZM15 8L15 9L14 9L14 10L16 10L16 8ZM3 9L3 10L4 10L4 9ZM30 10L30 12L29 12L29 13L30 13L30 15L29 15L29 14L27 14L27 15L29 15L29 16L28 16L28 18L27 18L27 19L28 19L28 18L29 18L29 19L30 19L30 17L31 17L31 16L32 16L32 15L34 15L34 14L35 14L35 13L34 13L34 14L33 14L33 13L32 13L32 12L33 12L33 10ZM34 10L34 12L35 12L35 10ZM14 11L14 12L16 12L16 11ZM31 11L31 12L30 12L30 13L31 13L31 12L32 12L32 11ZM8 12L8 13L9 13L9 12ZM12 12L12 13L11 13L11 14L12 14L12 16L11 16L11 15L8 15L8 16L11 16L11 17L9 17L9 19L8 19L8 21L9 21L9 22L10 22L10 21L9 21L9 19L11 19L11 17L12 17L12 16L13 16L13 17L15 17L15 18L16 18L16 16L18 16L18 17L19 17L19 18L20 18L20 19L23 19L23 18L25 18L25 17L23 17L23 18L21 18L21 16L18 16L18 15L17 15L17 14L16 14L16 13L15 13L15 15L13 15L13 12ZM6 13L6 14L7 14L7 13ZM31 14L31 15L30 15L30 16L29 16L29 17L30 17L30 16L31 16L31 15L32 15L32 14ZM15 15L15 16L16 16L16 15ZM13 18L13 20L14 20L14 21L15 21L15 20L14 20L14 18ZM0 20L0 22L1 22L1 20ZM6 20L6 21L7 21L7 20ZM22 20L22 21L23 21L23 22L24 22L24 21L25 21L25 20L24 20L24 21L23 21L23 20ZM31 21L31 22L32 22L32 23L33 23L33 22L32 22L32 21ZM5 23L5 24L7 24L7 23ZM8 24L8 25L10 25L10 27L9 27L9 28L10 28L10 27L11 27L11 24ZM14 24L14 25L13 25L13 27L15 27L15 26L18 26L18 27L19 27L19 26L18 26L18 25L17 25L17 24ZM28 25L28 26L29 26L29 25ZM6 27L6 28L7 28L7 27ZM26 27L26 28L27 28L27 27ZM18 28L18 29L17 29L17 30L18 30L18 29L19 29L19 28ZM35 28L35 29L37 29L37 28ZM29 29L29 32L32 32L32 29ZM30 30L30 31L31 31L31 30ZM35 30L35 33L36 33L36 32L37 32L37 30ZM21 31L21 32L22 32L22 33L23 33L23 34L24 34L24 33L23 33L23 32L24 32L24 31L23 31L23 32L22 32L22 31ZM16 32L16 34L19 34L19 33L17 33L17 32ZM30 33L30 34L33 34L33 35L34 35L34 36L35 36L35 35L34 35L34 34L33 34L33 33ZM21 34L21 35L22 35L22 34ZM17 35L17 36L18 36L18 35ZM12 36L12 37L13 37L13 36ZM0 0L0 7L7 7L7 0ZM1 1L1 6L6 6L6 1ZM2 2L2 5L5 5L5 2ZM30 0L30 7L37 7L37 0ZM31 1L31 6L36 6L36 1ZM32 2L32 5L35 5L35 2ZM0 30L0 37L7 37L7 30ZM1 31L1 36L6 36L6 31ZM2 32L2 35L5 35L5 32Z" fill="#000000"/></g></g></svg>
